<svg xmlns="http://www.w3.org/2000/svg" viewBox="0 0 239.35 89.09"><g><path d="M55.43 89.02h-13l-7.39-47.44h-.25l-7 47.43H14.88L0 .12h14.1l6.88 46.59h.21L27.55.07H41.7l6.86 46.45h.27L55.2.11h14.14Zm116.12-30.31V.13h13.49v88.86h-14.45l-18.18-56h-.23v56h-13.39v-89h13.89a1.33 1.33 0 0 1 1.56 1.2q7.54 25.5 15.14 51l2 6.61zM197.1.03h21.67c9.68 0 18.75 7.78 20.19 17.36a30.86 30.86 0 0 1 .35 4.53v45.22c0 9.72-5.55 17.9-14.23 20.78a22.16 22.16 0 0 1-6.45 1.09c-6.71.14-13.43.05-20.15.05h-1.38zm13.44 13.73V75.6c2.76 0 5.44.07 8.11 0a7.56 7.56 0 0 0 7.45-7.77V21.65a7.57 7.57 0 0 0-6.86-7.86c-2.83-.18-5.72-.03-8.69-.03zM93.98 89H80.44V.11h13.54v30.86l.26.05 4.14-8q5.64-11 11.26-22a1.56 1.56 0 0 1 1.63-1c4 .05 8.08 0 12.12 0h1.24l-1.09 2.17q-8.39 16.63-16.8 33.25a2.16 2.16 0 0 0-.09 2q10.31 25.15 20.57 50.32c.15.36.28.73.47 1.22-.39 0-.68.09-1 .09h-13.8a1.3 1.3 0 0 1-1.44-1q-6.52-16.8-13.1-33.58c-.14-.36-.3-.72-.54-1.32-.94 1.89-1.71 3.62-2.65 5.25a9.9 9.9 0 0 0-1.25 5.25c.07 8 0 15.92 0 23.88Z"/></g></svg>
